<svg width="20" height="20" viewBox="0 0 20 20" fill="none" xmlns="http://www.w3.org/2000/svg">
<path d="M3.16191 10.0242C3.60955 7.78608 3.83336 6.66697 4.57292 5.94619C4.70961 5.81297 4.85749 5.69175 5.01492 5.58384C5.86674 5 7.00801 5 9.29054 5H10.7096C12.9922 5 14.1335 5 14.9853 5.58384C15.1427 5.69175 15.2905 5.81297 15.4273 5.94619C16.1668 6.66697 16.3906 7.78608 16.8383 10.0242C17.481 13.2376 17.8023 14.8442 17.0625 15.9827C16.9286 16.1889 16.7723 16.3796 16.5965 16.5513C15.6251 17.5 13.9866 17.5 10.7096 17.5H9.29054C6.01356 17.5 4.37507 17.5 3.40376 16.5513C3.22789 16.3796 3.07156 16.1889 2.93762 15.9827C2.19791 14.8442 2.51924 13.2376 3.16191 10.0242Z" stroke="#2D3B36"/>
<path opacity="0.5" d="M12.5 8.33317C12.9602 8.33317 13.3333 7.96007 13.3333 7.49984C13.3333 7.0396 12.9602 6.6665 12.5 6.6665C12.0397 6.6665 11.6666 7.0396 11.6666 7.49984C11.6666 7.96007 12.0397 8.33317 12.5 8.33317Z" fill="#2D3B36"/>
<path opacity="0.5" d="M7.49996 8.33317C7.9602 8.33317 8.33329 7.96007 8.33329 7.49984C8.33329 7.0396 7.9602 6.6665 7.49996 6.6665C7.03972 6.6665 6.66663 7.0396 6.66663 7.49984C6.66663 7.96007 7.03972 8.33317 7.49996 8.33317Z" fill="#2D3B36"/>
<path opacity="0.5" d="M7.5 4.99984V4.1665C7.5 2.7858 8.61925 1.6665 10 1.6665C11.3807 1.6665 12.5 2.7858 12.5 4.1665V4.99984" stroke="#2D3B36" stroke-linecap="round"/>
</svg>
