<svg width="16" height="16" viewBox="0 0 16 16" fill="none" xmlns="http://www.w3.org/2000/svg">
<path d="M15.9056 14.6408C14.6704 12.5064 12.7314 11.0087 10.4782 10.3736C11.5737 9.8168 12.4496 8.9072 12.9649 7.79162C13.4801 6.67604 13.6047 5.41942 13.3184 4.22441C13.0321 3.0294 12.3516 1.96563 11.3868 1.20464C10.422 0.443645 9.2289 0.0297852 8.0001 0.0297852C6.77129 0.0297852 5.57827 0.443645 4.61343 1.20464C3.64859 1.96563 2.96816 3.0294 2.68186 4.22441C2.39557 5.41942 2.52009 6.67604 3.03534 7.79162C3.5506 8.9072 4.42657 9.8168 5.52199 10.3736C3.26887 11.008 1.3298 12.5056 0.0946505 14.6408C0.0607305 14.6941 0.0379604 14.7538 0.0277004 14.8162C0.0174404 14.8786 0.0199004 14.9424 0.0349404 15.0038C0.0499804 15.0652 0.0772905 15.1229 0.115221 15.1735C0.153151 15.2241 0.20092 15.2664 0.25565 15.2981C0.31038 15.3297 0.370951 15.35 0.433711 15.3576C0.496471 15.3652 0.56012 15.36 0.62084 15.3424C0.681551 15.3248 0.73808 15.2951 0.78701 15.2551C0.83595 15.2151 0.87628 15.1655 0.90559 15.1095C2.40637 12.5166 5.05793 10.9689 8.0001 10.9689C10.9423 10.9689 13.5939 12.5166 15.0946 15.1095C15.124 15.1655 15.1643 15.2151 15.2132 15.2551C15.2622 15.2951 15.3187 15.3248 15.3794 15.3424C15.4401 15.36 15.5038 15.3652 15.5665 15.3576C15.6293 15.35 15.6898 15.3297 15.7446 15.2981C15.7993 15.2664 15.8471 15.2241 15.885 15.1735C15.9229 15.1229 15.9502 15.0652 15.9653 15.0038C15.9803 14.9424 15.9828 14.8786 15.9725 14.8162C15.9623 14.7538 15.9395 14.6941 15.9056 14.6408ZM3.46887 5.50015C3.46887 4.60395 3.73462 3.72788 4.23252 2.98272C4.73042 2.23756 5.4381 1.65678 6.26608 1.31382C7.09406 0.970855 8.0051 0.881125 8.8841 1.05597C9.7631 1.2308 10.5705 1.66236 11.2042 2.29607C11.8379 2.92978 12.2695 3.73717 12.4443 4.61615C12.6191 5.49512 12.5294 6.40621 12.1864 7.23418C11.8435 8.0622 11.2627 8.7698 10.5175 9.2677C9.7724 9.7656 8.8963 10.0314 8.0001 10.0314C6.7988 10.03 5.6471 9.55209 4.79764 8.70259C3.94818 7.85316 3.47031 6.70147 3.46887 5.50015Z" fill="#2D3B36"/>
</svg>
